<?xml version="1.0" encoding="utf-8"?>
<!-- Generator: Adobe Illustrator 25.4.1, SVG Export Plug-In . SVG Version: 6.00 Build 0)  -->
<svg version="1.1" id="logo" xmlns="http://www.w3.org/2000/svg" xmlns:xlink="http://www.w3.org/1999/xlink" x="0px" y="0px"
	 viewBox="0 0 163.08 144.25" style="enable-background:new 0 0 163.08 144.25;" xml:space="preserve">
<style type="text/css">
	.st0{fill:#50245C;}
</style>
<path id="outline_00000099653545479692175270000000704327275245358747_" class="st0" d="M111,38.38c1.26,1.26,1.26,3.31,0,4.57
	s-3.31,1.26-4.57,0s-1.26-3.31,0-4.57C107.69,37.12,109.74,37.12,111,38.38z M163.08,72.12c0,39.77-32.35,72.12-72.12,72.12
	c-19.12,0-36.53-7.48-49.45-19.68c-9.88,8.88-19.15,13.47-27.6,13.65c-0.16,0-0.33,0-0.49,0c-7.84,0-11.93-4-12.11-4.17l-1.3-1.3
	l27.11-27.11c-5.28-10.02-8.28-21.42-8.28-33.52C18.83,32.35,51.18,0,90.95,0S163.08,32.35,163.08,72.12z M45.45,115.54
	c-3.5-3.86-5.42-8.84-5.42-14.12c0-1.3,0.12-2.59,0.35-3.84L5.42,132.54c1.59,0.93,4.44,2.11,8.55,2
	C20.38,134.35,30.99,130.86,45.45,115.54z M54.97,82.99l-6.84,6.84c-2.85,3.18-4.41,7.25-4.41,11.59c0,4.28,1.52,8.31,4.31,11.46
	l55.99-56.25c-3.14-2.71-7.11-4.19-11.33-4.19c-4.65,0-9.01,1.8-12.27,5.06L54.95,82.97L54.97,82.99z M122.6,39.17
	c-2.16-6.64-8.41-11.45-15.76-11.45c-9.14,0-16.58,7.44-16.58,16.58v4.6c0.8-0.09,1.61-0.14,2.42-0.14c5.64,0,10.92,2.18,14.88,6.14
	l0.61,0.61c0.27,0.27,0.53,0.54,0.78,0.82l14.47,11.96V50.24l-2.11,0.21c-0.12,0.01-0.24,0.02-0.36,0.02
	c-0.89,0-1.76-0.33-2.42-0.93c-0.75-0.68-1.19-1.66-1.19-2.67v-4.04c0-1.07,0.46-2.09,1.25-2.81c0.8-0.72,1.86-1.06,2.93-0.95
	L122.6,39.17z M121.13,42.72l-0.11,0.1v4.04l2.39-0.25V44.3c0-0.45-0.02-0.9-0.06-1.34L121.13,42.72z M68.58,121.89
	c1.93,0.27,3.93,0.44,5.97,0.44c27.12,0,48.43-21.57,48.86-49.26l-9.8-8.1c0.46,1.75,0.7,3.56,0.7,5.42
	c0,5.64-2.18,10.92-6.14,14.88l-31.64,31.64C74.26,119.18,71.54,120.87,68.58,121.89z M73.93,114.3l31.64-31.64
	c3.26-3.26,5.06-7.62,5.06-12.27c0-4.13-1.42-8.03-4.03-11.14l-55.95,56.2c1.28,1.05,2.69,1.9,4.19,2.53
	c0.09,0.04,0.18,0.08,0.28,0.11c2.05,0.82,4.25,1.26,6.53,1.26C66.31,119.36,70.67,117.57,73.93,114.3z M67.97,136.59l-11.92-14.17
	c-0.79-0.29-1.54-0.59-2.25-0.88c-0.17-0.07-0.34-0.14-0.51-0.21c-0.27-0.11-0.53-0.23-0.79-0.34l0.01-0.02
	c-1.58-0.76-3.06-1.72-4.41-2.87c-1.31,1.39-2.61,2.7-3.9,3.95C50.98,128.41,59.05,133.4,67.97,136.59z M90.54,140.56L77.96,125.9
	c-1.13,0.07-2.27,0.11-3.41,0.11c-4.24,0-8.31-0.64-11.98-1.56l11.76,14.06C79.53,139.81,84.95,140.52,90.54,140.56z M159.39,72.12
	c0-37.74-30.7-68.44-68.44-68.44s-68.44,30.7-68.44,68.44c0,11.07,2.65,21.52,7.33,30.78l15.59-15.59c0.24-0.26,0.48-0.52,0.74-0.77
	L77.81,54.9c2.48-2.48,5.49-4.26,8.77-5.25V44.3c0-11.17,9.09-20.26,20.26-20.26c9.55,0,17.57,6.65,19.7,15.55l22.17,2.35
	c1.51,0.2,2.58,1.41,2.57,2.89s-1.08,2.69-2.55,2.87l-21.64,2.16V72.2c0,27.42-19.08,49.45-44.69,53.23l12.86,14.99
	C131.01,138.18,159.39,108.41,159.39,72.12z M127.1,44.3v1.94l13.76-1.42l-13.79-1.46C127.09,43.67,127.1,43.98,127.1,44.3z"/>
</svg>
