<?xml version="1.0" encoding="utf-8"?>
<!-- Generator: Adobe Illustrator 25.4.1, SVG Export Plug-In . SVG Version: 6.00 Build 0)  -->
<svg version="1.1" id="logo" xmlns="http://www.w3.org/2000/svg" xmlns:xlink="http://www.w3.org/1999/xlink" x="0px" y="0px"
	 viewBox="0 0 363.86 144.25" style="enable-background:new 0 0 363.86 144.25;" xml:space="preserve">
<style type="text/css">
	.st0{fill:#50245C;}
</style>
<g id="lettering_00000117660898977731452390000006117061213982177450_">
	<path id="_x5F__00000139990815368895959420000001533287936339157159_" class="st0" d="M363.5,20.84c-0.81-1.55-2.71-2.14-4.26-1.34
		c-1.07,0.56-1.81,1.07-2.65,1.65c-0.8,0.58-1.57,1.18-2.31,1.82c-1.48,1.27-2.85,2.64-4.16,4.08c-1.31,1.44-2.56,2.93-3.73,4.5
		c-1.16,1.58-2.29,3.2-3.23,4.95l-0.04,0.08c-0.26,0.5-0.31,1.11-0.07,1.67c0.42,0.99,1.56,1.45,2.54,1.03
		c1.96-0.83,3.65-1.89,5.31-2.98c1.65-1.11,3.2-2.3,4.69-3.56c1.5-1.25,2.92-2.57,4.24-4c0.66-0.71,1.29-1.45,1.89-2.22
		c0.57-0.76,1.22-1.61,1.59-2.35l0.23-0.48C363.96,22.81,363.98,21.76,363.5,20.84z"/>
	<path id="a_00000157990472573297397990000017399837541490922162_" class="st0" d="M342.76,61.75l-0.58-8.52
		c-0.23-2.87-0.43-5.72-0.92-8.83c-0.14-0.79-0.29-1.6-0.52-2.49l-0.21-0.7l-0.27-0.77c-0.24-0.57-0.46-1.14-1.04-1.94
		c-0.25-0.36-0.68-0.83-1.19-1.22c-0.3-0.22-0.59-0.41-0.94-0.58c-0.36-0.16-0.75-0.31-1.13-0.4c-0.37-0.08-0.77-0.12-1.13-0.13
		l-0.55,0.02c-0.36,0.02-0.72,0.07-1.07,0.14c-1.4,0.28-2.56,0.89-3.48,1.54c-1.84,1.33-2.93,2.88-3.82,4.26
		c-0.91,1.43-1.63,2.9-2.24,4.36c-1.19,2.94-1.97,5.7-2.74,8.54c-0.76,2.83-1.39,5.68-1.91,8.54c-1.05,5.72-1.71,11.45-2.12,17.16
		c-0.42,5.71-0.66,11.4-0.79,17.08l0,0.02c-0.02,0.93,0.67,1.75,1.62,1.86c1.01,0.13,1.93-0.59,2.06-1.6
		c0.75-6.04,1.52-12.06,2.49-18c1.61,0.16,3.19,0.11,4.74-0.02c1.65-0.14,3.28-0.39,4.89-0.72c0.64-0.14,1.27-0.28,1.9-0.44
		c0,0.09,0.01,0.17,0.01,0.26c0.45,11.38,1.21,22.58,1.58,33.69l0,0.03c0.09,2.48,2.09,4.5,4.61,4.58c2.63,0.08,4.82-1.98,4.91-4.61
		c0.36-11.55-0.42-22.95-1.11-34.19L342.76,61.75z M332.48,72.12c-0.77,0.21-1.54,0.45-2.31,0.69c-1.52,0.51-3.03,1.09-4.51,1.78
		c-0.9,0.42-1.79,0.88-2.68,1.41c0.68-3.72,1.46-7.41,2.4-11.04c0.7-2.67,1.44-5.32,2.33-7.91c0.88-2.58,1.82-5.22,2.92-7.46
		c1.94-4.42,2.5,1.31,2.58,4.09l0.17,8.45c0.05,3.23,0.12,6.47,0.21,9.71C333.22,71.92,332.85,72.02,332.48,72.12z"/>
	<path id="_x5F__00000181059998766635673010000005465285030871949216_" class="st0" d="M308.59,41.01c0.51,0.01,1.03,0.01,1.55-0.03
		c4.25-0.26,8.85-2.01,10.05-5.16c0.53-1.4,0.32-2.94-0.59-4.22c-1.5-2.12-4.84-3.42-8.5-3.32c-3.71,0.1-7.13,1.67-8.54,3.86
		c-0.52-0.29-1.14-0.41-1.77-0.31c-1.5,0.24-2.52,1.66-2.27,3.16C299.05,38.39,303.2,40.86,308.59,41.01z M311.24,33.78
		c1.39-0.04,2.98,0.19,3.11,0.53c0.48,0.56-3.13,1.43-5.22,1.06c-0.41-0.07-1.57-0.35-1.61-0.55
		C308.16,34.41,309.51,33.83,311.24,33.78z"/>
	<path id="i_00000157270001958376054500000014346903786152734849_" class="st0" d="M310.73,43.96c-1.06-0.32-3.97,0.28-4.29,1.35
		l0,0.01c-1.2,4.01-3.73,20.04-4.37,24.05c-0.36,2-0.71,4-1.02,6c-0.35,1.99-0.65,3.99-0.96,5.98l-0.9,5.9l-0.44,2.85l-0.5,4.77
		c-0.52,3.09,1.36,3.45,4.44,4.33c3.31,0.95,6.76,0.82,7.71-2.49c0.17-0.61,0.34-1.24,0.49-1.85l0.34-1.66
		c0.22-1.09,0.37-3.05,0.53-4.1c0.29-2.11,0.53-4.19,0.7-6.27c0.18-2.08,0.32-4.15,0.41-6.22l0.13-3.11l0.06-3.11
		c0.11-4.14-0.04-20.76-0.92-24.93C311.97,44.78,311.45,44.18,310.73,43.96z"/>
	<path id="b_00000175297354385791196640000000838780470403075998_" class="st0" d="M296.67,73.71c-0.8-1.49-1.93-2.71-3.07-3.62
		c-1.14-0.91-2.3-1.54-3.39-2.04c-1.96-0.88-3.83-1.36-5.43-1.73c0.57-0.49,1.14-0.98,1.69-1.49c1.17-1.07,2.28-2.21,3.33-3.39
		c0.52-0.6,1.04-1.19,1.54-1.8l0.75-0.92c0.26-0.33,0.53-0.69,0.79-1.05c1.03-1.45,1.98-3.02,2.74-4.87
		c0.74-1.83,1.35-4.02,1.19-6.57c-0.06-1.25-0.41-2.58-0.94-3.77c-0.51-1.21-1.3-2.27-2.19-3.2c-0.9-0.93-1.92-1.6-2.93-2.12
		c-1.01-0.52-2-0.84-2.97-1.09c-1.91-0.45-3.69-0.53-5.36-0.47c-0.83,0.02-1.67,0.1-2.44,0.18c-0.74,0.09-1.49,0.18-2.23,0.29
		c-5.92,0.89-11.7,2.46-17.13,4.71c-0.81,0.33-1.32,1.18-1.19,2.09c0.15,1.07,0.25,2.71,1.32,2.56l0.01,0
		c1.69-0.24,3.46-0.52,5.26-0.79c-4.44,20.08-8.85,42.03-11.53,62.43c-0.02,0.14-0.03,0.29-0.04,0.43
		c-0.06,1.48,0.84,2.26,2.11,2.69c-1.07,0.81-2.16,1.6-3.25,2.37c-0.01,0.01-0.05,0.04-0.06,0.04c-2.57,1.86-3.14,5.44-1.28,8.01
		c1.86,2.57,4.55,5.83,7.11,3.97c11.08-7.1,26.94-26.02,31.52-31.18l1.71-1.94c0.6-0.69,1.25-1.47,1.87-2.29
		c1.22-1.68,2.48-3.54,3.3-6.17c0.4-1.31,0.66-2.83,0.56-4.47C297.95,76.85,297.47,75.18,296.67,73.71z M278.21,43.59l2.04,0.09
		c0.65,0.04,1.25,0.09,1.84,0.18c1.18,0.16,2.25,0.46,3.07,0.81c0.82,0.36,1.28,0.81,1.37,1.09c0.04,0.15,0.09,0.27,0.07,0.41
		c-0.01,0.13-0.03,0.22-0.08,0.39c-0.07,0.31-0.28,0.94-0.74,1.68c-0.44,0.74-1.08,1.56-1.82,2.35l-1.25,1.27
		c-0.45,0.45-0.92,0.88-1.38,1.32c-0.94,0.85-1.91,1.67-2.88,2.48c-3.26,2.64-6.78,4.9-10.45,6.91c0.63-6.17,1.34-12.34,2.14-18.51
		C272.92,43.72,275.67,43.5,278.21,43.59z M285.21,82.41c-0.41,0.54-0.84,1.06-1.35,1.64l-1.65,1.87
		c-4.41,4.96-8.98,9.75-13.76,14.24c-1.12,1.06-2.27,2.1-3.42,3.12c0.41-9.36,1.01-18.73,1.8-28.09c0.19,0.03,0.38,0.06,0.57,0.07
		c3.23,0.26,6.45,0.61,9.65,1.16c3.09,0.54,6.81,1.17,8.58,1.95C287.92,79.01,285.99,81.37,285.21,82.41z"/>
	<path id="a_00000145746531581063606040000002435755896521966984_" class="st0" d="M255.57,62.65c0.09-2.73,0.06-5.5-0.16-8.28
		c-0.11-1.39-0.27-2.79-0.49-4.18c-0.21-1.4-0.5-3.08-1.37-4.92c-0.45-0.92-1.08-1.91-2.04-2.8c-0.96-0.89-2.2-1.55-3.53-1.87
		c-1.34-0.33-2.8-0.26-3.96,0.09c-1.18,0.33-2.16,0.85-2.99,1.42c-1.63,1.16-2.77,2.47-3.75,3.89c-1.01,1.54-1.55,2.73-2.17,4.07
		c-2.33,5.29-3.52,10.6-4.76,15.63c-2.44,10.19-4.71,20.42-6.42,30.8c-0.15,0.9,0.35,1.81,1.23,2.14c1.01,0.39,3.04,0.78,3.42-0.23
		c1.5-5.54,3.19-12.43,5.02-19.33c3.29-0.56,9.15-2.06,13.21-3.27c-0.07,0.64-0.15,1.29-0.22,1.93c-1.26,10.38-3.5,22.56-5.35,32.88
		c-0.03,0.15-0.05,0.3-0.06,0.45c-0.17,2.38,2.52,2.65,4.89,2.82c2.38,0.17,4.44-0.72,4.61-3.1c0.75-10.46,2.01-21.74,3.34-32.14
		C254.72,73.44,255.37,68.11,255.57,62.65z M235.3,72.95c0.44-1.57,0.89-3.12,1.35-4.63c1.53-5.05,3.85-10.62,5.87-14.88
		c0.49-1.03,1.08-2.21,1.52-2.85c2.08-3.72,3.19,2.15,3.44,4.48c0.24,2.43,0.34,4.9,0.31,7.4c-0.02,2.04-0.11,4.1-0.26,6.17
		C244.69,69.47,238.55,71.7,235.3,72.95z"/>
	<path id="s_00000061438871890950890890000003509292841421436804_" class="st0" d="M225.04,78.64c0.13-0.22,0.26-0.44,0.39-0.67
		l0.2-0.35l0.11-0.19l0.18-0.35c0.95-1.85,1.26-4.07,0.91-6.13c-0.36-2.06-1.39-4.03-2.96-5.44c-0.38-0.36-0.81-0.66-1.24-0.94
		c-0.22-0.13-0.44-0.25-0.67-0.37l-0.17-0.09l-0.1-0.04l-0.18-0.08c-0.49-0.23-0.98-0.42-1.46-0.61c-0.97-0.37-1.94-0.67-2.87-0.93
		c-1.88-0.51-3.64-0.85-5.28-1.19l-10.03-2.06c0,0-3.04-0.42-4.39-0.98c-1.36-0.56,0.04-2.14,0.04-2.14
		c0.48-0.54,0.96-1.09,1.51-1.6c1.07-1.04,2.23-2.06,3.47-3.04c1.23-0.99,2.52-1.94,3.86-2.85c5.39-3.63,11.35-6.72,17.45-9.52
		c3.05-1.41,15.6-4.62,18.77-5.83l0.03-0.01c0.53-0.2,0.91-2.54,0.9-3.16c-0.01-0.79-0.63-1.42-1.39-1.41
		c-7.08,0.12-13.84,1.91-20.55,3.88c-6.69,2.08-13.3,4.65-19.62,8.34c-0.79,0.45-1.57,0.95-2.36,1.43
		c-0.77,0.53-1.55,1.03-2.31,1.59c-1.52,1.11-3.01,2.34-4.41,3.75c-0.71,0.69-1.39,1.45-2.05,2.23c-0.33,0.41-0.65,0.8-0.98,1.23
		c-0.35,0.47-0.68,0.98-1,1.51c-0.62,1.07-1.2,2.29-1.55,3.83c-0.36,1.5-0.41,3.51,0.28,5.37c0.33,0.93,0.89,1.91,1.63,2.7
		c0.73,0.79,1.58,1.38,2.33,1.75c0.76,0.38,1.45,0.6,2.02,0.76l1.34,0.35l4.96,1.28l9.91,2.62c1.67,0.44,3.25,0.85,4.65,1.32
		c1.36,0.76,0.23,2.16-0.25,2.8c-0.97,1.26-2.02,2.52-3.06,3.66c-0.26,0.28-0.52,0.55-0.76,0.8c-0.11,0.11-0.25,0.25-0.33,0.32
		l-0.39,0.36l-1.91,1.72c-2.53,2.31-5.09,4.58-7.67,6.82c-2.59,2.23-5.2,4.45-7.83,6.61c-2.64,2.16-5.31,4.28-7.97,6.4
		c-2.69,2.08-11.25,8.57-11.25,8.57c-8.73,6.48,3.1,10.41,4.82,9.85c0.83-0.34,1.56-0.84,2.28-1.35c0.71-0.53,1.43-1.04,2.16-1.54
		c2.91-1.99,5.8-4.01,8.6-6.15c5.61-4.27,11.01-8.79,16.32-13.44c2.65-2.33,5.26-4.7,7.84-7.1l1.92-1.83l0.56-0.54
		c0.23-0.22,0.39-0.4,0.58-0.61c0.36-0.39,0.69-0.76,1.01-1.13c1.27-1.48,2.42-2.95,3.55-4.5c0.56-0.77,1.11-1.57,1.65-2.39
		C224.5,79.5,224.77,79.09,225.04,78.64z"/>
</g>
<path id="outline_00000099653545479692175270000000704327275245358747_" class="st0" d="M111,38.38c1.26,1.26,1.26,3.31,0,4.57
	c-1.26,1.26-3.31,1.26-4.57,0c-1.26-1.26-1.26-3.31,0-4.57C107.69,37.12,109.74,37.12,111,38.38z M163.08,72.12
	c0,39.77-32.35,72.12-72.12,72.12c-19.12,0-36.53-7.48-49.45-19.68c-9.88,8.88-19.15,13.47-27.6,13.65c-0.16,0-0.33,0-0.49,0
	c-7.84,0-11.93-4-12.11-4.17l-1.3-1.3l27.11-27.11c-5.28-10.02-8.28-21.42-8.28-33.52C18.83,32.35,51.18,0,90.95,0
	S163.08,32.35,163.08,72.12z M45.45,115.54c-3.5-3.86-5.42-8.84-5.42-14.12c0-1.3,0.12-2.59,0.35-3.84L5.42,132.54
	c1.59,0.93,4.44,2.11,8.55,2C20.38,134.35,30.99,130.86,45.45,115.54z M54.97,82.99l-6.84,6.84c-2.85,3.18-4.41,7.25-4.41,11.59
	c0,4.28,1.52,8.31,4.31,11.46l55.99-56.25c-3.14-2.71-7.11-4.19-11.33-4.19c-4.65,0-9.01,1.8-12.27,5.06L54.95,82.97L54.97,82.99z
	 M122.6,39.17c-2.16-6.64-8.41-11.45-15.76-11.45c-9.14,0-16.58,7.44-16.58,16.58l0,4.6c0.8-0.09,1.61-0.14,2.42-0.14
	c5.64,0,10.92,2.18,14.88,6.14l0.61,0.61c0.27,0.27,0.53,0.54,0.78,0.82l14.47,11.96V50.24l-2.11,0.21
	c-0.12,0.01-0.24,0.02-0.36,0.02c-0.89,0-1.76-0.33-2.42-0.93c-0.75-0.68-1.19-1.66-1.19-2.67v-4.04c0-1.07,0.46-2.09,1.25-2.81
	c0.8-0.72,1.86-1.06,2.93-0.95L122.6,39.17z M121.13,42.72l-0.11,0.1v4.04l2.39-0.25V44.3c0-0.45-0.02-0.9-0.06-1.34L121.13,42.72z
	 M68.58,121.89c1.93,0.27,3.93,0.44,5.97,0.44c27.12,0,48.43-21.57,48.86-49.26l-9.8-8.1c0.46,1.75,0.7,3.56,0.7,5.42
	c0,5.64-2.18,10.92-6.14,14.88l-31.64,31.64C74.26,119.18,71.54,120.87,68.58,121.89z M73.93,114.3l31.64-31.64
	c3.26-3.26,5.06-7.62,5.06-12.27c0-4.13-1.42-8.03-4.03-11.14l-55.95,56.2c1.28,1.05,2.69,1.9,4.19,2.53
	c0.09,0.04,0.18,0.08,0.28,0.11c2.05,0.82,4.25,1.26,6.53,1.26C66.31,119.36,70.67,117.57,73.93,114.3z M67.97,136.59l-11.92-14.17
	c-0.79-0.29-1.54-0.59-2.25-0.88c-0.17-0.07-0.34-0.14-0.51-0.21c-0.27-0.11-0.53-0.23-0.79-0.34l0.01-0.02
	c-1.58-0.76-3.06-1.72-4.41-2.87c-1.31,1.39-2.61,2.7-3.9,3.95C50.98,128.41,59.05,133.4,67.97,136.59z M90.54,140.56L77.96,125.9
	c-1.13,0.07-2.27,0.11-3.41,0.11c-4.24,0-8.31-0.64-11.98-1.56l11.76,14.06C79.53,139.81,84.95,140.52,90.54,140.56z M159.39,72.12
	c0-37.74-30.7-68.44-68.44-68.44c-37.74,0-68.44,30.7-68.44,68.44c0,11.07,2.65,21.52,7.33,30.78l15.59-15.59
	c0.24-0.26,0.48-0.52,0.74-0.77L77.81,54.9c2.48-2.48,5.49-4.26,8.77-5.25l0-5.35c0-11.17,9.09-20.26,20.26-20.26
	c9.55,0,17.57,6.65,19.7,15.55l22.17,2.35c1.51,0.2,2.58,1.41,2.57,2.89c-0.01,1.48-1.08,2.69-2.55,2.87l-21.64,2.16v22.34
	c0,27.42-19.08,49.45-44.69,53.23l12.86,14.99C131.01,138.18,159.39,108.41,159.39,72.12z M127.1,44.3v1.94l13.76-1.42l-13.79-1.46
	C127.09,43.67,127.1,43.98,127.1,44.3z"/>
</svg>
