<?xml version="1.0" encoding="utf-8"?>
<!-- Generator: Adobe Illustrator 25.4.1, SVG Export Plug-In . SVG Version: 6.00 Build 0)  -->
<svg version="1.1" id="logo" xmlns="http://www.w3.org/2000/svg" xmlns:xlink="http://www.w3.org/1999/xlink" x="0px" y="0px"
	 viewBox="0 0 144.25 144.25" style="enable-background:new 0 0 144.25 144.25;" xml:space="preserve">
<style type="text/css">
	.st0{fill:#50245C;}
</style>
<path id="full_00000063610741353829432080000006876345158466589835_" class="st0" d="M103.93,41.14l2.35,0.25
	c0.04,0.47,0.06,0.94,0.06,1.41v2.44l-2.52,0.26v-4.26L103.93,41.14z M105.48,37.4l-1.14-0.12c-1.12-0.11-2.24,0.25-3.08,1
	c-0.84,0.75-1.32,1.83-1.32,2.96v4.26c0,1.07,0.46,2.1,1.25,2.82c0.7,0.64,1.62,0.98,2.56,0.98c0.12,0,0.25-0.01,0.38-0.02
	l2.22-0.22v19.03L91.1,55.49c-0.27-0.29-0.54-0.59-0.82-0.87l-0.64-0.64c-4.17-4.17-9.74-6.47-15.68-6.47
	c-0.86,0-1.71,0.05-2.56,0.15v-4.85c0-9.63,7.84-17.47,17.47-17.47C96.62,25.33,103.2,30.41,105.48,37.4z M93.25,36.56
	c-1.33-1.33-3.49-1.33-4.82,0s-1.33,3.49,0,4.82c1.33,1.33,3.49,1.33,4.82,0S94.58,37.89,93.25,36.56z M92.86,70.3
	c0-4.35-1.5-8.46-4.24-11.74l-58.96,59.23c1.35,1.11,2.84,2,4.42,2.67c0.09,0.04,0.19,0.08,0.29,0.12c2.16,0.87,4.48,1.33,6.89,1.33
	c4.9,0,9.49-1.89,12.93-5.33l33.34-33.35C90.97,79.79,92.86,75.2,92.86,70.3z M18.46,103c0-1.37,0.13-2.73,0.37-4.05l-9.18,9.18
	c2.92,5.04,6.43,9.7,10.44,13.88c1.33-1.28,2.69-2.65,4.09-4.13C20.48,113.81,18.46,108.57,18.46,103z M124.73,43.35l-14.53-1.54
	c0.02,0.33,0.03,0.66,0.03,1v2.04L124.73,43.35z M106.33,73.12l-10.32-8.54c0.48,1.84,0.74,3.76,0.74,5.71
	c0,5.94-2.3,11.51-6.47,15.68l-33.34,33.35c-2.4,2.4-5.26,4.17-8.39,5.25c2.04,0.29,4.14,0.46,6.29,0.46
	C83.42,125.04,105.88,102.31,106.33,73.12z M22.34,103c0,4.51,1.61,8.75,4.54,12.08L85.89,55.8c-3.31-2.85-7.49-4.41-11.94-4.41
	c-4.9,0-9.49,1.89-12.93,5.33L34.18,83.56l0.02,0.02l-7.21,7.21C23.99,94.14,22.34,98.43,22.34,103z M54.84,128.92
	c-4.47,0-8.76-0.68-12.62-1.64l12.07,14.34l0.42,0.49c5.49,1.38,11.08,2.11,16.99,2.14L58.44,128.8
	C57.25,128.88,56.05,128.92,54.84,128.92z M72.13,0C32.36,0,0,32.36,0,72.13c0,11.66,2.79,22.69,7.72,32.44l16.43-16.43
	c0.25-0.28,0.51-0.55,0.77-0.82l33.34-33.34c2.62-2.62,5.78-4.49,9.24-5.53v-5.64c0-11.77,9.58-21.35,21.35-21.35
	c10.07,0,18.52,7,20.76,16.39L133,40.32c1.59,0.21,2.71,1.49,2.71,3.05c-0.01,1.56-1.14,2.83-2.69,3.02l-22.8,2.28v23.54
	c0,28.9-20.1,52.11-47.09,56.09l13.55,15.79c37.66-2.36,67.57-33.74,67.57-71.98C144.25,32.36,111.9,0,72.13,0z M32.97,124.21
	c-0.18-0.07-0.36-0.15-0.54-0.22c-0.28-0.12-0.56-0.24-0.83-0.36l0.01-0.02c-1.66-0.8-3.22-1.81-4.65-3.02
	c-1.38,1.46-2.75,2.85-4.11,4.16C30,131.44,38.5,136.7,47.9,140.06l-12.56-14.93C34.51,124.83,33.72,124.52,32.97,124.21z"/>
</svg>
