<?xml version="1.0" encoding="utf-8"?>
<!-- Generator: Adobe Illustrator 25.4.1, SVG Export Plug-In . SVG Version: 6.00 Build 0)  -->
<svg version="1.1" id="logo" xmlns="http://www.w3.org/2000/svg" xmlns:xlink="http://www.w3.org/1999/xlink" x="0px" y="0px"
	 viewBox="0 0 194.06 105.96" style="enable-background:new 0 0 194.06 105.96;" xml:space="preserve">
<style type="text/css">
	.st0{fill:#50245C;}
</style>
<g id="lettering_00000117660898977731452390000006117061213982177450_">
	<path id="_x5F__00000139990815368895959420000001533287936339157159_" class="st0" d="M193.7,1.7c-0.81-1.55-2.71-2.14-4.26-1.34
		c-1.07,0.56-1.81,1.07-2.65,1.65c-0.8,0.58-1.57,1.18-2.31,1.82c-1.48,1.27-2.85,2.64-4.16,4.08s-2.56,2.93-3.73,4.5
		c-1.16,1.58-2.29,3.2-3.23,4.95l-0.04,0.08c-0.26,0.5-0.31,1.11-0.07,1.67c0.42,0.99,1.56,1.45,2.54,1.03
		c1.96-0.83,3.65-1.89,5.31-2.98c1.65-1.11,3.2-2.3,4.69-3.56c1.5-1.25,2.92-2.57,4.24-4c0.66-0.71,1.29-1.45,1.89-2.22
		c0.57-0.76,1.22-1.61,1.59-2.35l0.23-0.48C194.16,3.67,194.18,2.62,193.7,1.7z"/>
	<path id="a_00000157990472573297397990000017399837541490922162_" class="st0" d="M172.95,42.61l-0.58-8.52
		c-0.23-2.87-0.43-5.72-0.92-8.83c-0.14-0.79-0.29-1.6-0.52-2.49l-0.21-0.7l-0.27-0.77c-0.24-0.57-0.46-1.14-1.04-1.94
		c-0.25-0.36-0.68-0.83-1.19-1.22c-0.3-0.22-0.59-0.41-0.94-0.58c-0.36-0.16-0.75-0.31-1.13-0.4c-0.37-0.08-0.77-0.12-1.13-0.13
		l-0.55,0.02c-0.36,0.02-0.72,0.07-1.07,0.14c-1.4,0.28-2.56,0.89-3.48,1.54c-1.84,1.33-2.93,2.88-3.82,4.26
		c-0.91,1.43-1.63,2.9-2.24,4.36c-1.19,2.94-1.97,5.7-2.74,8.54c-0.76,2.83-1.39,5.68-1.91,8.54c-1.05,5.72-1.71,11.45-2.12,17.16
		c-0.42,5.71-0.66,11.4-0.79,17.08v0.02c-0.02,0.93,0.67,1.75,1.62,1.86c1.01,0.13,1.93-0.59,2.06-1.6c0.75-6.04,1.52-12.06,2.49-18
		c1.61,0.16,3.19,0.11,4.74-0.02c1.65-0.14,3.28-0.39,4.89-0.72c0.64-0.14,1.27-0.28,1.9-0.44c0,0.09,0.01,0.17,0.01,0.26
		c0.45,11.38,1.21,22.58,1.58,33.69v0.03c0.09,2.48,2.09,4.5,4.61,4.58c2.63,0.08,4.82-1.98,4.91-4.61
		c0.36-11.55-0.42-22.95-1.11-34.19L172.95,42.61z M162.68,52.98c-0.77,0.21-1.54,0.45-2.31,0.69c-1.52,0.51-3.03,1.09-4.51,1.78
		c-0.9,0.42-1.79,0.88-2.68,1.41c0.68-3.72,1.46-7.41,2.4-11.04c0.7-2.67,1.44-5.32,2.33-7.91c0.88-2.58,1.82-5.22,2.92-7.46
		c1.94-4.42,2.5,1.31,2.58,4.09l0.17,8.45c0.05,3.23,0.12,6.47,0.21,9.71C163.41,52.78,163.04,52.88,162.68,52.98z"/>
	<path id="_x5F__00000181059998766635673010000005465285030871949216_" class="st0" d="M138.78,21.87c0.51,0.01,1.03,0.01,1.55-0.03
		c4.25-0.26,8.85-2.01,10.05-5.16c0.53-1.4,0.32-2.94-0.59-4.22c-1.5-2.12-4.84-3.42-8.5-3.32c-3.71,0.1-7.13,1.67-8.54,3.86
		c-0.52-0.29-1.14-0.41-1.77-0.31c-1.5,0.24-2.52,1.66-2.27,3.16C129.25,19.25,133.4,21.72,138.78,21.87z M141.44,14.64
		c1.39-0.04,2.98,0.19,3.11,0.53c0.48,0.56-3.13,1.43-5.22,1.06c-0.41-0.07-1.57-0.35-1.61-0.55
		C138.36,15.27,139.7,14.69,141.44,14.64z"/>
	<path id="i_00000157270001958376054500000014346903786152734849_" class="st0" d="M140.92,24.82c-1.06-0.32-3.97,0.28-4.29,1.35
		v0.01c-1.2,4.01-3.73,20.04-4.37,24.05c-0.36,2-0.71,4-1.02,6c-0.35,1.99-0.65,3.99-0.96,5.98l-0.9,5.9l-0.44,2.85l-0.5,4.77
		c-0.52,3.09,1.36,3.45,4.44,4.33c3.31,0.95,6.76,0.82,7.71-2.49c0.17-0.61,0.34-1.24,0.49-1.85l0.34-1.66
		c0.22-1.09,0.37-3.05,0.53-4.1c0.29-2.11,0.53-4.19,0.7-6.27c0.18-2.08,0.32-4.15,0.41-6.22l0.13-3.11l0.06-3.11
		c0.11-4.14-0.04-20.76-0.92-24.93C142.16,25.64,141.65,25.04,140.92,24.82z"/>
	<path id="b_00000175297354385791196640000000838780470403075998_" class="st0" d="M126.87,54.57c-0.8-1.49-1.93-2.71-3.07-3.62
		s-2.3-1.54-3.39-2.04c-1.96-0.88-3.83-1.36-5.43-1.73c0.57-0.49,1.14-0.98,1.69-1.49c1.17-1.07,2.28-2.21,3.33-3.39
		c0.52-0.6,1.04-1.19,1.54-1.8l0.75-0.92c0.26-0.33,0.53-0.69,0.79-1.05c1.03-1.45,1.98-3.02,2.74-4.87
		c0.74-1.83,1.35-4.02,1.19-6.57c-0.06-1.25-0.41-2.58-0.94-3.77c-0.51-1.21-1.3-2.27-2.19-3.2c-0.9-0.93-1.92-1.6-2.93-2.12
		c-1.01-0.52-2-0.84-2.97-1.09c-1.91-0.45-3.69-0.53-5.36-0.47c-0.83,0.02-1.67,0.1-2.44,0.18c-0.75,0.09-1.49,0.18-2.23,0.29
		c-5.92,0.89-11.7,2.46-17.13,4.71c-0.81,0.33-1.32,1.18-1.19,2.09c0.15,1.07,0.25,2.71,1.32,2.56h0.01
		c1.69-0.24,3.46-0.52,5.26-0.79c-4.44,20.08-8.85,42.03-11.53,62.43c-0.02,0.14-0.03,0.29-0.04,0.43
		c-0.06,1.48,0.84,2.26,2.11,2.69c-1.07,0.81-2.16,1.6-3.25,2.37c-0.01,0.01-0.05,0.04-0.06,0.04c-2.57,1.86-3.14,5.44-1.28,8.01
		s4.55,5.83,7.11,3.97c11.08-7.1,26.94-26.02,31.52-31.18l1.71-1.94c0.6-0.69,1.25-1.47,1.87-2.29c1.22-1.68,2.48-3.54,3.3-6.17
		c0.4-1.31,0.66-2.83,0.56-4.47C128.15,57.71,127.67,56.04,126.87,54.57z M108.41,24.45l2.04,0.09c0.65,0.04,1.25,0.09,1.84,0.18
		c1.18,0.16,2.25,0.46,3.07,0.81c0.82,0.36,1.28,0.81,1.37,1.09c0.04,0.15,0.09,0.27,0.07,0.41c-0.01,0.13-0.03,0.22-0.08,0.39
		c-0.07,0.31-0.28,0.94-0.74,1.68c-0.44,0.74-1.08,1.56-1.82,2.35l-1.25,1.27c-0.45,0.45-0.92,0.88-1.38,1.32
		c-0.94,0.85-1.91,1.67-2.88,2.48c-3.26,2.64-6.78,4.9-10.45,6.91c0.63-6.17,1.34-12.34,2.14-18.51
		C103.11,24.58,105.87,24.36,108.41,24.45z M115.41,63.27c-0.41,0.54-0.84,1.06-1.35,1.64l-1.65,1.87
		c-4.41,4.96-8.98,9.75-13.76,14.24c-1.12,1.06-2.27,2.1-3.42,3.12c0.41-9.36,1.01-18.73,1.8-28.09c0.19,0.03,0.38,0.06,0.57,0.07
		c3.23,0.26,6.45,0.61,9.65,1.16c3.09,0.54,6.81,1.17,8.58,1.95C118.11,59.87,116.19,62.23,115.41,63.27z"/>
	<path id="a_00000145746531581063606040000002435755896521966984_" class="st0" d="M85.77,43.51c0.09-2.73,0.06-5.5-0.16-8.28
		c-0.11-1.39-0.27-2.79-0.49-4.18c-0.21-1.4-0.5-3.08-1.37-4.92c-0.45-0.92-1.08-1.91-2.04-2.8c-0.96-0.89-2.2-1.55-3.53-1.87
		c-1.34-0.33-2.8-0.26-3.96,0.09c-1.18,0.33-2.16,0.85-2.99,1.42c-1.63,1.16-2.77,2.47-3.75,3.89c-1.01,1.54-1.55,2.73-2.17,4.07
		c-2.33,5.29-3.52,10.6-4.76,15.63c-2.44,10.19-4.71,20.42-6.42,30.8c-0.15,0.9,0.35,1.81,1.23,2.14c1.01,0.39,3.04,0.78,3.42-0.23
		c1.5-5.54,3.19-12.43,5.02-19.33c3.29-0.56,9.15-2.06,13.21-3.27c-0.07,0.64-0.15,1.29-0.22,1.93c-1.26,10.38-3.5,22.56-5.35,32.88
		c-0.03,0.15-0.05,0.3-0.06,0.45c-0.17,2.38,2.52,2.65,4.89,2.82c2.38,0.17,4.44-0.72,4.61-3.1c0.75-10.46,2.01-21.74,3.34-32.14
		C84.92,54.3,85.57,48.97,85.77,43.51z M65.5,53.81c0.44-1.57,0.89-3.12,1.35-4.63c1.53-5.05,3.85-10.62,5.87-14.88
		c0.49-1.03,1.08-2.21,1.52-2.85c2.08-3.72,3.19,2.15,3.44,4.48c0.24,2.43,0.34,4.9,0.31,7.4c-0.02,2.04-0.11,4.1-0.26,6.17
		C74.89,50.33,68.75,52.56,65.5,53.81z"/>
	<path id="s_00000061438871890950890890000003509292841421436804_" class="st0" d="M55.23,59.5c0.13-0.22,0.26-0.44,0.39-0.67
		l0.2-0.35l0.11-0.19l0.18-0.35c0.95-1.85,1.26-4.07,0.91-6.13c-0.36-2.06-1.39-4.03-2.96-5.44c-0.38-0.36-0.81-0.66-1.24-0.94
		c-0.22-0.13-0.44-0.25-0.67-0.37l-0.17-0.09l-0.1-0.04l-0.18-0.08c-0.49-0.23-0.98-0.42-1.46-0.61c-0.97-0.37-1.94-0.67-2.87-0.93
		c-1.88-0.51-3.64-0.85-5.28-1.19l-10.03-2.06c0,0-3.04-0.42-4.39-0.98c-1.36-0.56,0.04-2.14,0.04-2.14
		c0.48-0.54,0.96-1.09,1.51-1.6c1.07-1.04,2.23-2.06,3.47-3.04c1.23-0.99,2.52-1.94,3.86-2.85c5.39-3.63,11.35-6.72,17.45-9.52
		c3.05-1.41,15.6-4.62,18.77-5.83l0.03-0.01c0.53-0.2,0.91-2.54,0.9-3.16c-0.01-0.79-0.63-1.42-1.39-1.41
		c-7.08,0.12-13.84,1.91-20.55,3.88c-6.69,2.08-13.3,4.65-19.62,8.34c-0.79,0.45-1.57,0.95-2.36,1.43
		c-0.77,0.53-1.55,1.03-2.31,1.59c-1.52,1.11-3.01,2.34-4.41,3.75c-0.71,0.69-1.39,1.45-2.05,2.23c-0.33,0.41-0.65,0.8-0.98,1.23
		c-0.35,0.47-0.68,0.98-1,1.51c-0.62,1.07-1.2,2.29-1.55,3.83c-0.36,1.5-0.41,3.51,0.28,5.37c0.33,0.93,0.89,1.91,1.63,2.7
		c0.73,0.79,1.58,1.38,2.33,1.75c0.76,0.38,1.45,0.6,2.02,0.76l1.34,0.35l4.96,1.28l9.91,2.62c1.67,0.44,3.25,0.85,4.65,1.32
		c1.36,0.76,0.23,2.16-0.25,2.8c-0.97,1.26-2.02,2.52-3.06,3.66c-0.26,0.28-0.52,0.55-0.76,0.8c-0.11,0.11-0.25,0.25-0.33,0.32
		l-0.39,0.36l-1.91,1.72c-2.53,2.31-5.09,4.58-7.67,6.82c-2.59,2.23-5.2,4.45-7.83,6.61c-2.64,2.16-5.31,4.28-7.97,6.4
		c-2.69,2.08-11.25,8.57-11.25,8.57C-5.55,98,6.28,101.93,8,101.37c0.83-0.34,1.56-0.84,2.28-1.35c0.71-0.53,1.43-1.04,2.16-1.54
		c2.91-1.99,5.8-4.01,8.6-6.15c5.61-4.27,11.01-8.79,16.32-13.44c2.65-2.33,5.26-4.7,7.84-7.1l1.92-1.83l0.56-0.54
		c0.23-0.22,0.39-0.4,0.58-0.61c0.36-0.39,0.69-0.76,1.01-1.13c1.27-1.48,2.42-2.95,3.55-4.5c0.56-0.77,1.11-1.57,1.65-2.39
		C54.7,60.36,54.97,59.95,55.23,59.5z"/>
</g>
</svg>
