<?xml version="1.0" standalone="no"?>
<!DOCTYPE svg PUBLIC "-//W3C//DTD SVG 20010904//EN"
 "http://www.w3.org/TR/2001/REC-SVG-20010904/DTD/svg10.dtd">
<svg version="1.0" xmlns="http://www.w3.org/2000/svg"
 width="3000.000000pt" height="3000.000000pt" viewBox="0 0 3000.000000 3000.000000"
 preserveAspectRatio="xMidYMid meet">
<metadata>
Created by potrace 1.14, written by Peter Selinger 2001-2017
</metadata>
<g transform="translate(0.000000,3000.000000) scale(0.100000,-0.100000)"
fill="#000000" stroke="none">
<path d="M14483 29989 c-2156 -69 -4243 -597 -6173 -1561 -1464 -731 -2741
-1650 -3901 -2808 -743 -742 -1333 -1461 -1904 -2320 -233 -351 -346 -533
-530 -855 -1574 -2751 -2228 -5910 -1879 -9075 139 -1265 442 -2508 900 -3702
150 -390 363 -876 529 -1209 l87 -172 5282 5289 c2906 2909 5334 5334 5397
5390 233 206 483 388 746 543 245 144 619 312 874 393 l107 33 5 735 c4 774 8
840 58 1150 204 1272 977 2414 2085 3080 807 485 1730 700 2664 619 1334 -115
2551 -836 3295 -1954 275 -414 475 -853 596 -1309 15 -60 32 -112 36 -116 4
-4 1103 -123 2442 -265 1338 -142 2459 -264 2490 -272 168 -43 334 -177 405
-325 88 -183 88 -383 0 -566 -28 -59 -56 -96 -118 -158 -93 -93 -180 -142
-298 -168 -56 -13 -4724 -486 -4792 -486 -14 0 -16 -324 -19 -2767 -3 -1954
-7 -2809 -15 -2908 -59 -727 -110 -1115 -217 -1653 -426 -2143 -1400 -4077
-2851 -5662 -165 -180 -554 -567 -729 -726 -1154 -1047 -2529 -1852 -4005
-2344 -557 -186 -1200 -345 -1767 -436 -95 -16 -173 -32 -173 -36 0 -7 2729
-3197 2791 -3262 18 -19 21 -19 286 3 2825 233 5461 1229 7728 2921 596 445
1086 870 1636 1419 434 435 741 776 1098 1221 1833 2283 2951 5029 3225 7920
78 831 89 1697 31 2515 -288 4034 -2204 7775 -5322 10392 -2833 2377 -6402
3611 -10100 3492z"/>
<path d="M18195 24734 c-385 -38 -592 -80 -890 -179 -1254 -415 -2192 -1494
-2429 -2795 -46 -254 -49 -299 -53 -994 l-5 -669 39 6 c203 31 714 33 983 2
908 -102 1702 -430 2400 -990 152 -122 396 -350 545 -509 105 -112 319 -293
1702 -1437 870 -720 1585 -1309 1588 -1309 3 0 5 891 5 1980 l0 1981 -32 -5
c-126 -21 -477 -48 -563 -43 -284 14 -535 184 -659 448 -72 152 -71 139 -71
774 0 620 -1 608 59 757 91 224 304 411 541 474 119 32 199 36 371 18 91 -9
167 -14 170 -11 12 11 -104 295 -196 482 -194 392 -408 686 -731 1000 -580
565 -1294 904 -2119 1005 -86 11 -582 21 -655 14z m765 -2135 c157 -25 277
-86 390 -199 87 -87 140 -172 177 -285 33 -103 38 -282 10 -385 -85 -311 -358
-520 -679 -521 -306 -1 -564 185 -664 476 -36 107 -45 271 -19 378 84 356 432
593 785 536z"/>
<path d="M21552 21448 c-9 -9 -12 -124 -12 -455 l0 -443 28 0 c15 0 134 11
266 25 131 14 241 25 244 25 6 0 -3 798 -9 805 -4 4 -462 55 -493 55 -6 0 -17
-5 -24 -12z"/>
<path d="M22870 21006 c0 -173 3 -317 8 -319 6 -3 2904 293 2992 305 l25 4
-25 7 c-24 6 -2947 317 -2983 317 -16 0 -17 -23 -17 -314z"/>
<path d="M15160 19329 c-840 -38 -1626 -349 -2280 -903 -116 -98 -3379 -3354
-5789 -5776 -1044 -1049 -1565 -1580 -1625 -1655 -450 -565 -723 -1231 -807
-1975 -20 -176 -18 -651 4 -830 78 -632 280 -1183 619 -1689 58 -86 208 -284
266 -350 l38 -43 6120 6147 c3365 3381 6120 6152 6121 6158 4 23 -269 230
-458 347 -665 414 -1410 605 -2209 569z"/>
<path d="M12281 11707 c-3363 -3378 -6116 -6147 -6118 -6152 -3 -11 190 -158
317 -242 404 -269 896 -464 1402 -557 436 -81 940 -81 1376 0 696 128 1307
425 1837 895 61 54 1715 1703 3676 3666 2735 2736 3588 3596 3661 3688 458
574 722 1191 819 1910 26 194 36 588 20 780 -62 747 -317 1425 -751 1999 -38
50 -81 106 -97 123 l-28 33 -6114 -6143z"/>
<path d="M19941 16520 c173 -679 179 -1454 18 -2155 -170 -739 -523 -1427
-1025 -1995 -134 -152 -7292 -7303 -7399 -7392 -435 -362 -880 -616 -1440
-823 -18 -7 -17 -8 9 -16 30 -8 405 -51 611 -70 189 -17 984 -23 1228 -10
1784 97 3425 592 4912 1482 968 579 1865 1339 2606 2209 1402 1645 2284 3696
2538 5900 39 334 67 746 73 1035 l2 140 -1067 882 c-587 486 -1071 883 -1075
883 -5 0 0 -32 9 -70z"/>
<path d="M2961 8516 c-741 -741 -952 -958 -947 -971 3 -10 43 -79 88 -154 556
-929 1169 -1745 1911 -2548 l160 -173 100 93 c102 94 699 701 735 748 l20 25
-85 100 c-869 1013 -1246 2351 -1042 3698 10 71 18 131 16 132 -2 2 -432 -426
-956 -950z"/>
<path d="M5178 4545 c-236 -238 -428 -435 -428 -438 0 -6 249 -232 410 -373
1145 -999 2483 -1844 3880 -2449 328 -142 896 -363 906 -352 3 2 -581 701
-1298 1552 l-1303 1547 -323 128 c-178 71 -380 156 -449 189 -310 150 -621
348 -898 571 l-70 57 -427 -432z"/>
<path d="M8812 3526 c29 -35 613 -730 1298 -1544 l1245 -1479 220 -52 c972
-227 1857 -344 2900 -384 39 -2 -321 -5 -800 -6 l-870 -3 155 -26 155 -25 843
-4 c486 -2 842 0 842 5 0 5 -10 17 -21 28 -21 19 -21 19 45 24 l65 5 -1372
1600 -1373 1600 -90 -1 c-49 0 -258 -4 -464 -9 -869 -18 -1715 75 -2634 291
-103 24 -190 44 -193 44 -2 0 19 -29 49 -64z"/>
<path d="M15816 48 c28 -50 5 -48 474 -48 407 0 449 2 631 25 107 14 201 27
209 29 8 2 -286 4 -653 5 -532 1 -667 -2 -661 -11z"/>
</g>
</svg>
